<mxfile host="app.diagrams.net" modified="2023-02-22T08:36:33.517Z" agent="5.0 (Windows NT 10.0; Win64; x64) AppleWebKit/537.36 (KHTML, like Gecko) Chrome/110.0.0.0 Safari/537.36" etag="IuoCay_kF0z0F3MlKXIf" version="20.8.21" type="github">
  <diagram name="Page-1" id="lEpQAF8qihLhESbGT4bd">
    <mxGraphModel dx="1290" dy="585" grid="1" gridSize="10" guides="1" tooltips="1" connect="1" arrows="1" fold="1" page="1" pageScale="1" pageWidth="1169" pageHeight="827" math="0" shadow="0">
      <root>
        <mxCell id="0" />
        <mxCell id="1" parent="0" />
        <mxCell id="dVu7_W4TFJnHhqkPRI8y-5" style="edgeStyle=orthogonalEdgeStyle;rounded=0;orthogonalLoop=1;jettySize=auto;html=1;exitX=0.5;exitY=1;exitDx=0;exitDy=0;entryX=0;entryY=0.5;entryDx=0;entryDy=0;" edge="1" parent="1" source="dVu7_W4TFJnHhqkPRI8y-1" target="dVu7_W4TFJnHhqkPRI8y-4">
          <mxGeometry relative="1" as="geometry" />
        </mxCell>
        <mxCell id="dVu7_W4TFJnHhqkPRI8y-1" value="" style="rounded=1;whiteSpace=wrap;html=1;" vertex="1" parent="1">
          <mxGeometry x="50" y="60" width="120" height="60" as="geometry" />
        </mxCell>
        <mxCell id="dVu7_W4TFJnHhqkPRI8y-7" style="edgeStyle=orthogonalEdgeStyle;rounded=0;orthogonalLoop=1;jettySize=auto;html=1;exitX=1;exitY=0.5;exitDx=0;exitDy=0;" edge="1" parent="1" source="dVu7_W4TFJnHhqkPRI8y-4" target="dVu7_W4TFJnHhqkPRI8y-6">
          <mxGeometry relative="1" as="geometry" />
        </mxCell>
        <mxCell id="dVu7_W4TFJnHhqkPRI8y-8" style="edgeStyle=orthogonalEdgeStyle;rounded=0;orthogonalLoop=1;jettySize=auto;html=1;exitX=0.5;exitY=1;exitDx=0;exitDy=0;entryX=0.5;entryY=0;entryDx=0;entryDy=0;" edge="1" parent="1" source="dVu7_W4TFJnHhqkPRI8y-4" target="dVu7_W4TFJnHhqkPRI8y-9">
          <mxGeometry relative="1" as="geometry">
            <mxPoint x="190" y="410" as="targetPoint" />
          </mxGeometry>
        </mxCell>
        <mxCell id="dVu7_W4TFJnHhqkPRI8y-4" value="" style="rhombus;whiteSpace=wrap;html=1;rounded=1;" vertex="1" parent="1">
          <mxGeometry x="150" y="190" width="80" height="80" as="geometry" />
        </mxCell>
        <mxCell id="dVu7_W4TFJnHhqkPRI8y-6" value="" style="whiteSpace=wrap;html=1;rounded=1;" vertex="1" parent="1">
          <mxGeometry x="300" y="200" width="120" height="60" as="geometry" />
        </mxCell>
        <mxCell id="dVu7_W4TFJnHhqkPRI8y-9" value="" style="rounded=1;whiteSpace=wrap;html=1;" vertex="1" parent="1">
          <mxGeometry x="130" y="460" width="120" height="60" as="geometry" />
        </mxCell>
      </root>
    </mxGraphModel>
  </diagram>
</mxfile>
